<svg xmlns="http://www.w3.org/2000/svg" viewBox="0 0 800 600" fill="none">
  <rect width="800" height="600" rx="24" fill="#F0FDFA"/>
  <rect x="40" y="40" width="720" height="520" rx="20" fill="#CCFBF1" opacity="0.5"/>
  <path d="M280 320c0 60 54 110 120 110s120-50 120-110" stroke="#0D8F9E" stroke-width="4" fill="none" stroke-linecap="round"/>
  <rect x="310" y="295" width="22" height="36" rx="5" fill="white" stroke="#94A3B8" stroke-width="1.5"/>
  <rect x="338" y="290" width="22" height="40" rx="5" fill="white" stroke="#94A3B8" stroke-width="1.5"/>
  <rect x="366" y="287" width="24" height="44" rx="6" fill="white" stroke="#11B8C9" stroke-width="2"/>
  <rect x="396" y="287" width="24" height="44" rx="6" fill="white" stroke="#11B8C9" stroke-width="2"/>
  <rect x="426" y="290" width="22" height="40" rx="5" fill="white" stroke="#94A3B8" stroke-width="1.5"/>
  <rect x="454" y="295" width="22" height="36" rx="5" fill="white" stroke="#94A3B8" stroke-width="1.5"/>
  <path d="M500 220l10-25 10 25 25 10-25 10-10 25-10-25-25-10z" fill="#11B8C9" opacity="0.5"/>
  <path d="M270 250l7-18 7 18 18 7-18 7-7 18-7-18-18-7z" fill="#11B8C9" opacity="0.4"/>
  <text x="400" y="200" text-anchor="middle" font-family="system-ui,sans-serif" font-size="18" font-weight="500" fill="#0D8F9E" opacity="0.6">Before → After</text>
  <text x="400" y="540" text-anchor="middle" font-family="system-ui,sans-serif" font-size="20" font-weight="600" fill="#0D8F9E">Smile Makeover</text>
</svg>